#!Matlab matrix to amc conversion
:FULLY-SPECIFIED
:DEGREES
1
root 9.287220 16.950000 -34.276200 0.000000 0.000000 0.000000
lowerback 0.000000 0.000000 0.000000
upperback 0.000000 0.000000 0.000000
thorax 0.000000 0.000000 0.000000
lowerneck -16.000000 0.000000 0.000000
upperneck 21.000000 0.000000 0.000000
head 11.000000 0.000000 0.000000
rclavicle 0.000000 0.000000
rhumerus 0.000000 0.000000 0.000000
rradius 0.000000
rwrist 0.000000
rhand 0.000000 0.000000
rfingers 0.000000
rthumb 0.000000 0.000000
lclavicle 0.000000 0.000000
lhumerus 0.000000 0.000000 0.000000
lradius 0.000000
lwrist 0.000000
lhand 0.000000 0.000000
lfingers 0.000000
lthumb 0.000000 0.000000
rfemur 0.000000 0.000000 21.000000
rtibia 0.000000
rfoot 0.000000 0.000000
rtoes 0.000000
lfemur 0.000000 0.000000 -21.000000
ltibia 0.000000
lfoot 0.000000 0.000000
ltoes 0.000000
2
root 9.287220 16.950000 -34.276200 2.329935 1.634016 0.069781
lowerback -2.468463 1.359517 -1.074736
upperback -2.793265 1.878818 -0.474788
thorax -1.511099 0.954119 0.273455
lowerneck -15.417045 0.350258 -1.306065
upperneck 38.894774 1.491171 -0.752710
head 17.228715 0.341332 0.147286
rclavicle -0.000000 0.000000
rhumerus -38.556839 -14.029276 -73.996545
rradius 26.506638
rwrist -6.893025
rhand -5.756441 13.003806
rfingers 7.125020
rthumb 20.057041 -15.967936
lclavicle -0.000000 0.000000
lhumerus -39.982494 32.817554 64.480501
lradius 28.574498
lwrist -0.356549
lhand -4.006560 24.924486
lfingers 7.125020
lthumb 21.727581 53.671296
rfemur -11.807442 1.960993 22.482075
rtibia 53.864910
rfoot -1.118982 -14.897662
rtoes -1.791612
lfemur -25.407383 -5.807401 -23.689704
ltibia 31.619879
lfoot -16.212345 11.297743
ltoes -11.597416
3
root 9.273270 17.016600 -33.905900 2.343662 1.634016 0.068755
lowerback -2.173436 1.065706 -1.854893
upperback -2.695947 1.462379 -0.542271
thorax -1.582818 0.760471 0.647108
lowerneck -15.338215 0.481288 -1.348124
upperneck 38.819397 1.696589 -0.798529
head 17.177992 0.414229 0.171919
rclavicle -0.000000 0.000000
rhumerus -38.644826 -14.089166 -74.483310
rradius 25.891629
rwrist -6.084316
rhand -4.684096 13.127411
rfingers 7.125020
rthumb 21.090182 -15.742406
lclavicle -0.000000 0.000000
lhumerus -36.136766 29.786849 69.479225
lradius 31.654071
lwrist 2.599956
lhand -2.500141 24.156920
lfingers 7.125020
lthumb 23.191260 52.726229
rfemur -17.225707 0.578699 21.245884
rtibia 59.883409
rfoot -1.855284 -14.990019
rtoes -0.048109
lfemur -23.387839 -5.421635 -25.038372
ltibia 31.721154
lfoot -17.119108 11.054834
ltoes -13.328292
4
root 9.268420 17.025800 -33.555600 2.409603 1.634016 -0.062628
lowerback -2.052823 1.093315 -1.901203
upperback -2.580135 1.490911 -0.427778
thorax -1.516673 0.775182 0.773398
lowerneck -15.301250 0.486667 -1.120044
upperneck 38.901172 1.619064 -0.842512
head 17.208199 0.416951 0.105905
rclavicle -0.000000 0.000000
rhumerus -38.908591 -14.185000 -74.623560
rradius 26.216866
rwrist -6.652902
rhand -4.779484 13.020533
rfingers 7.125020
rthumb 20.996078 -15.852782
lclavicle -0.000000 0.000000
lhumerus -34.493109 27.013694 71.285911
lradius 35.922515
lwrist 2.170120
lhand -2.864629 22.555007
lfingers 7.125020
lthumb 22.837016 51.166651
rfemur -20.712635 1.592566 21.168630
rtibia 56.755659
rfoot -5.526353 -16.357856
rtoes -0.960067
lfemur -21.356791 -6.069975 -25.308474
ltibia 31.645392
lfoot -18.549561 12.126744
ltoes -12.344550
5
root 9.249270 17.016300 -33.220600 2.453044 1.634016 -0.094945
lowerback -1.932092 1.121288 -1.948677
upperback -2.466082 1.521218 -0.322449
thorax -1.452646 0.790577 0.895221
lowerneck -15.277500 0.492559 -0.909021
upperneck 38.971100 1.544385 -0.890759
head 17.234970 0.420185 0.042478
rclavicle -0.000000 0.000000
rhumerus -39.137497 -14.256442 -74.758266
rradius 26.448166
rwrist -7.133448
rhand -4.869613 12.922998
rfingers 7.125020
rthumb 20.906881 -15.951734
lclavicle -0.000000 0.000000
lhumerus -33.066346 24.432968 72.945342
lradius 39.629933
lwrist 1.778804
lhand -3.236065 21.047637
lfingers 7.125020
lthumb 22.476012 49.701100
rfemur -23.809258 2.519491 21.077424
rtibia 53.852190
rfoot -8.364454 -17.461088
rtoes -1.738372
lfemur -19.425043 -6.638298 -25.569321
ltibia 31.426650
lfoot -19.762188 13.160097
ltoes -11.459560
6
root 9.246830 17.017700 -32.897400 2.480653 1.634016 -0.102934
lowerback -1.809919 1.151853 -2.000967
upperback -2.351570 1.555241 -0.221954
thorax -1.389190 0.807700 1.016682
lowerneck -15.265196 0.499025 -0.701437
upperneck 39.030181 1.471695 -0.945188
head 17.258775 0.423967 -0.023686
rclavicle -0.000000 0.000000
rhumerus -39.343386 -14.307487 -74.893137
rradius 26.643382
rwrist -7.570089
rhand -4.956530 12.812215
rfingers 7.125020
rthumb 20.820566 -16.063103
lclavicle -0.000000 0.000000
lhumerus -31.764903 21.951640 74.515076
lradius 43.056193
lwrist 1.412168
lhand -3.626725 19.606186
lfingers 7.125020
lthumb 22.096335 48.302029
rfemur -26.691226 3.444717 20.966254
rtibia 50.858768
rfoot -10.782300 -18.450140
rtoes -2.495113
lfemur -17.515383 -7.169425 -25.832191
ltibia 31.029425
lfoot -20.843141 14.175461
ltoes -10.528869
7
root 9.219480 17.016100 -32.563300 2.496668 1.634016 -0.105073
lowerback -1.684965 1.187443 -2.062095
upperback -2.234373 1.595164 -0.122162
thorax -1.324768 0.827715 1.141874
lowerneck -15.263422 0.506132 -0.483897
upperneck 39.079265 1.400158 -1.007962
head 17.280026 0.428337 -0.098138
rclavicle -0.000000 0.000000
rhumerus -39.536913 -14.340990 -75.033886
rradius 26.851342
rwrist -8.002927
rhand -5.042207 12.662521
rfingers 7.125020
rthumb 20.735173 -16.213720
lclavicle -0.000000 0.000000
lhumerus -30.505248 19.480262 76.049561
lradius 46.459941
lwrist 1.057242
lhand -4.049519 18.203285
lfingers 7.125020
lthumb 21.685457 46.943144
rfemur -29.522012 4.453333 20.827792
rtibia 47.451428
rfoot -13.131490 -19.459869
rtoes -3.339269
lfemur -15.551484 -7.703372 -26.108448
ltibia 30.389248
lfoot -21.869221 15.193045
ltoes -9.400563
